<svg width="118" height="128" viewBox="0 0 118 128" fill="none" xmlns="http://www.w3.org/2000/svg">
<g filter="url(#filter0_d)">
<path d="M54 15.8868C57.094 14.1004 60.906 14.1004 64 15.8868L92.9711 32.6132C96.0652 34.3996 97.9711 37.7008 97.9711 41.2735V74.7265C97.9711 78.2992 96.0652 81.6004 92.9711 83.3867L64 100.113C60.906 101.9 57.094 101.9 54 100.113L25.0289 83.3867C21.9348 81.6004 20.0289 78.2992 20.0289 74.7265V41.2735C20.0289 37.7008 21.9348 34.3996 25.0289 32.6132L54 15.8868Z" fill="white"/>
</g>
<path d="M44 66.5L43.5 74.5L43 75.5L44 75V74H44.5H47L50 75C52.3333 75.6667 57.4 77 59 77C60.6 77 61.6667 76.3333 62 76L73 68V66.5L71 65L63 69L61.5 68H57L56 67.5L53 65.5C52.6667 65.3333 51.7 65 50.5 65C49.3 65 47 65.6667 46 66H44L43 64.5L44 66.5Z" fill="#D9D8E4"/>
<path d="M59.5 63.5H63L63.5 62V56.5C64 56.3333 65.2 55.8 66 55C67 54 67.5 51.5 67.5 51C67.5 50.5 67.5 50 67 48C66.6 46.4 64.8333 45.3333 64 45L63.5 46V51C63.5 52 62.5 52.5 61 52.5C59.8 52.5 59.1667 51.1667 59 50.5V46L58.5 45L57 46C56.3333 46.8333 55 48.8 55 50C55 51.5 55.5 52.5 56 54C56.4 55.2 58.1667 56.1667 59 56.5V60.5L59.5 63.5Z" fill="#5FA9FF"/>
<path d="M72.6771 47.9676H72.2717C72.032 47.1259 71.6972 46.3182 71.2715 45.5547L71.5597 45.2664C71.8895 44.9368 72.071 44.4972 72.071 44.0285C72.071 43.5599 71.8895 43.1203 71.5595 42.7903L69.6392 40.8723C69.3095 40.5406 68.8693 40.3579 68.3998 40.3579C67.9304 40.3579 67.4902 40.5406 67.162 40.8707L66.8742 41.1586C66.11 40.7316 65.3021 40.3962 64.4609 40.1566V39.7512C64.4609 38.7856 63.6754 38 62.7097 38H59.9948C59.0292 38 58.2436 38.7856 58.2436 39.7512V40.1566C57.4025 40.3961 56.5941 40.7316 55.8284 41.1589L55.5419 40.8723C55.212 40.5406 54.7718 40.3579 54.3024 40.358C53.8329 40.358 53.3928 40.5407 53.0647 40.8708L51.1448 42.7907C50.815 43.1203 50.6336 43.5599 50.6336 44.0286C50.6336 44.4973 50.815 44.9368 51.1447 45.2664L51.4328 45.5546C51.0054 46.3205 50.6704 47.1283 50.4321 47.9676H50.0251C49.0595 47.9676 48.2739 48.7532 48.2739 49.7188V52.4361C48.2739 53.4017 49.0595 54.1873 50.0251 54.1873H50.4321C50.6704 55.0266 51.0054 55.8344 51.4328 56.6004L51.1447 56.8886C50.815 57.2182 50.6335 57.6578 50.6335 58.1264C50.6335 58.595 50.815 59.0346 51.1446 59.3642L53.063 61.2826C53.3928 61.6144 53.8328 61.797 54.3023 61.797H54.3024C54.7718 61.797 55.212 61.6144 55.5402 61.2843L55.8283 60.9961C56.5948 61.4237 57.4032 61.7588 58.2435 61.997V62.4038C58.2435 63.3694 59.0291 64.155 59.9947 64.155H62.7097C63.6753 64.155 64.4609 63.3694 64.4609 62.4038V61.997C65.3014 61.7587 66.1092 61.4238 66.8742 60.9964L67.1604 61.2826C67.4902 61.6144 67.9303 61.797 68.3997 61.797C68.8693 61.797 69.3095 61.6143 69.6373 61.2846L71.5597 59.3642C71.8894 59.0345 72.0709 58.5949 72.0709 58.1264C72.0709 57.6577 71.8894 57.2182 71.5597 56.8886L71.2715 56.6003C71.6971 55.8367 72.0318 55.0291 72.2716 54.1873H72.6771C73.6427 54.1873 74.4283 53.4017 74.4283 52.4361V49.7188C74.4283 48.7532 73.6428 47.9676 72.6771 47.9676ZM62.8985 62.4038C62.8985 62.5061 62.8121 62.5925 62.7097 62.5925H59.9948C59.8925 62.5925 59.8061 62.5061 59.8061 62.4038V61.3895V56.4644C59.8061 56.1377 59.6028 55.8455 59.2965 55.7319C57.1972 54.9533 55.7868 52.9329 55.7868 50.7044C55.7868 48.9382 56.6662 47.2827 58.1388 46.276C58.2049 46.2309 58.2634 46.194 58.3145 46.1638C58.3116 46.2653 58.3045 46.3619 58.3006 46.4123C58.2948 46.4916 58.2901 46.5542 58.2901 46.6163V50.3034C58.2901 51.9958 59.6125 53.4092 61.3005 53.5212C61.3349 53.5234 61.3695 53.5234 61.4039 53.5212C63.0907 53.4093 64.4121 51.9959 64.4121 50.3034V46.6163C64.4121 46.5545 64.4075 46.4923 64.4017 46.4135C64.398 46.3628 64.3908 46.2657 64.388 46.1637C64.439 46.1939 64.4971 46.2306 64.563 46.2757C66.036 47.2826 66.9154 48.9382 66.9154 50.7043C66.9154 52.9326 65.5058 54.9531 63.4077 55.7319C63.1015 55.8456 62.8983 56.1377 62.8983 56.4643V61.3894V62.4038H62.8985ZM72.8659 52.4361C72.8659 52.5367 72.7777 52.6249 72.6771 52.6249H71.6651C71.3001 52.6249 70.9837 52.8776 70.9032 53.2336C70.6558 54.3268 70.2273 55.3605 69.6296 56.306C69.4344 56.6148 69.4792 57.0176 69.7375 57.2758L70.4551 57.9934C70.5016 58.04 70.5086 58.0967 70.5086 58.1264C70.5086 58.156 70.5016 58.2128 70.4553 58.259L68.5312 60.181C68.4872 60.2252 68.4354 60.2345 68.3998 60.2345C68.3643 60.2345 68.3126 60.2252 68.2669 60.1793L67.5494 59.4617C67.2907 59.2031 66.8875 59.1586 66.5788 59.3542C65.9119 59.7768 65.2021 60.1121 64.4609 60.3599V56.984C66.8846 55.856 68.478 53.398 68.478 50.7042C68.478 48.4217 67.3441 46.2839 65.4449 44.9858C65.154 44.7869 64.2692 44.182 63.4954 44.6274C62.7356 45.0649 62.8113 46.0904 62.8436 46.5284C62.8464 46.5664 62.8491 46.5984 62.8497 46.6163V50.3034C62.8497 51.1586 62.1962 51.8755 61.3523 51.9579C60.5072 51.8754 59.8526 51.1585 59.8526 50.3034L59.8525 46.6219C59.8532 46.5984 59.8561 46.5664 59.8589 46.5282C59.8914 46.0905 59.9678 45.0655 59.2086 44.6278C58.4351 44.1816 57.549 44.7868 57.2575 44.9858C55.3582 46.284 54.2243 48.4218 54.2243 50.7043C54.2243 53.3985 55.8186 55.8567 58.2436 56.9843V60.36C57.5023 60.1122 56.7916 59.7767 56.1228 59.3539C55.9942 59.2727 55.8495 59.2331 55.7055 59.2331C55.5037 59.2331 55.3036 59.3111 55.1529 59.4619L54.4338 60.181C54.3899 60.2253 54.3381 60.2346 54.3024 60.2346C54.2668 60.2346 54.2152 60.2253 54.1696 60.1794L52.2496 58.2594C52.203 58.2128 52.196 58.156 52.196 58.1264C52.196 58.0968 52.203 58.04 52.2496 57.9934L52.9671 57.2758C53.2254 57.0176 53.2702 56.6148 53.0751 56.306C52.4743 55.3555 52.0459 54.3222 51.8017 53.2349C51.7217 52.8783 51.405 52.6248 51.0395 52.6248H50.0253C49.9247 52.6248 49.8365 52.5366 49.8365 52.436V49.7188C49.8365 49.6164 49.9229 49.53 50.0253 49.53H51.0395C51.405 49.53 51.7217 49.2765 51.8017 48.9199C52.0459 47.8326 52.4742 46.7992 53.0751 45.8488C53.2702 45.54 53.2254 45.1372 52.9671 44.879L52.2495 44.1614C52.203 44.1148 52.196 44.0581 52.196 44.0284C52.196 43.9988 52.203 43.942 52.2496 43.8954L54.1712 41.9737C54.2152 41.9295 54.2669 41.9202 54.3025 41.9202C54.3381 41.9202 54.3899 41.9295 54.4355 41.9754L55.153 42.6929C55.4114 42.9513 55.8142 42.996 56.1229 42.8009C57.0721 42.2008 58.1066 41.7715 59.1971 41.5251C59.5533 41.4447 59.8062 41.1282 59.8062 40.7631V39.7512C59.8062 39.6489 59.8926 39.5625 59.995 39.5625H62.7099C62.8122 39.5625 62.8986 39.6489 62.8986 39.7512V40.7633C62.8986 41.1284 63.1515 41.4448 63.5077 41.5253C64.5992 41.7719 65.6325 42.2009 66.5789 42.8007C66.8877 42.9963 67.2909 42.9517 67.5495 42.6932L68.2687 41.974C68.3126 41.9297 68.3644 41.9204 68.4 41.9204C68.4356 41.9204 68.4873 41.9297 68.5333 41.9759L70.4552 43.8956C70.5018 43.9422 70.5088 43.9989 70.5088 44.0286C70.5088 44.0583 70.5018 44.115 70.4552 44.1616L69.7377 44.8792C69.4794 45.1375 69.4346 45.5403 69.6297 45.849C70.2274 46.7945 70.6559 47.8282 70.9033 48.9214C70.9839 49.2774 71.3003 49.5302 71.6653 49.5302H72.6773C72.7796 49.5302 72.866 49.6166 72.866 49.7189V52.4361H72.8659Z" fill="#222A3F"/>
<path d="M65.9046 72.3992C65.5995 72.7043 65.5995 73.1989 65.9046 73.5041C66.0572 73.6566 66.2571 73.7329 66.457 73.7329C66.6569 73.7329 66.8568 73.6566 67.0094 73.5041L67.0116 73.5019C67.3167 73.1968 67.3156 72.7032 67.0104 72.3982C66.7053 72.0931 66.2097 72.0943 65.9046 72.3992Z" fill="#222A3F"/>
<path fill-rule="evenodd" clip-rule="evenodd" d="M40.035 65.5202C40.0475 65.5202 40.0599 65.5199 40.0722 65.5193H42.7682C43.0458 65.5193 43.2802 65.7538 43.2802 66.0314V74.2318C43.2802 74.5082 43.0458 74.7417 42.7682 74.7417H40.0831C40.0672 74.7407 40.0511 74.7402 40.035 74.7402C39.6015 74.7402 39.25 75.0917 39.25 75.5252C39.25 75.9588 39.6015 76.3102 40.035 76.3102C40.0683 76.3102 40.1011 76.3082 40.1333 76.3041H42.7682C43.6846 76.3041 44.4635 75.7072 44.7374 74.8824H46.4951C46.6504 74.8824 46.6504 74.8824 46.8309 74.9332C46.8965 74.9518 46.9764 74.9743 47.0795 75.002L55.1648 77.1651C55.516 77.2599 55.8385 77.3533 56.1504 77.4436L56.1642 77.4476L56.1647 77.4478C57.2004 77.7479 58.071 78.0001 58.9784 78.0001C60.0042 78.0001 61.0767 77.6778 62.4874 76.7376L62.4965 76.7315L62.5077 76.7237L64.0512 75.623C64.4026 75.3724 64.4843 74.8846 64.2337 74.5333C63.9832 74.1819 63.4952 74.1003 63.1442 74.3508L61.6108 75.4442C59.5637 76.8058 58.6944 76.5541 56.599 75.9469L56.5945 75.9456C56.2731 75.8525 55.9407 75.7562 55.5705 75.6562L47.4846 73.493C47.3899 73.4676 47.3157 73.4466 47.2547 73.4294C46.9597 73.3463 46.8494 73.3201 46.4952 73.3201H44.8427V66.9434H45.687C45.6983 66.9434 45.7094 66.9431 45.7206 66.9427L45.7651 66.9408C46.42 66.9128 46.6032 66.8949 47.3534 66.5988C50.254 65.4541 52.493 65.3181 55.3547 68.012L55.3933 68.0483C55.8824 68.5079 56.164 68.6951 56.9942 68.6951H61.2437C61.7425 68.6951 62.1774 68.972 62.4041 69.3799L62.4065 69.3841L62.4118 69.3932C62.5131 69.5805 62.5707 69.7947 62.5707 70.0222C62.5707 70.7527 61.9755 71.347 61.2438 71.347H54.3567C53.9253 71.347 53.5755 71.6968 53.5755 72.1282C53.5755 72.5597 53.9253 72.9095 54.3567 72.9095H61.2438C62.8371 72.9095 64.1332 71.6143 64.1332 70.0222C64.1332 69.8058 64.1085 69.5952 64.0632 69.3923L70.2371 66.2217C70.8215 65.9217 71.6205 65.9538 72.0172 66.5976C72.3681 67.165 72.1751 67.9192 71.5685 68.3517L68.8602 70.2805C68.5087 70.5308 68.4267 71.0186 68.677 71.3701C68.8294 71.5841 69.0699 71.6982 69.314 71.6982C69.4708 71.6982 69.6291 71.6511 69.7665 71.5533L72.4751 69.6242C73.7615 68.7071 74.1358 67.0526 73.3466 65.7768C72.5706 64.5173 70.927 64.1109 69.5233 64.8315L63.321 68.0167C62.7953 67.4722 62.0586 67.1325 61.2437 67.1325H56.9941C56.7561 67.1325 56.698 67.1136 56.6941 67.1123C56.6596 67.0941 56.5507 66.9918 56.4633 66.9096L56.4246 66.8732C52.9865 63.6368 50.0823 63.8419 46.7796 65.1453C46.2453 65.3562 46.235 65.3567 45.6983 65.3796L44.7374 65.3803C44.4637 64.5544 43.6847 63.9568 42.7682 63.9568H40.1372C40.1037 63.9524 40.0696 63.9502 40.035 63.9502C39.6015 63.9502 39.25 64.3017 39.25 64.7352C39.25 65.1687 39.6015 65.5202 40.035 65.5202Z" fill="#222A3F"/>
<defs>
<filter id="filter0_d" x="0.0288086" y="0.546875" width="117.942" height="126.906" filterUnits="userSpaceOnUse" color-interpolation-filters="sRGB">
<feFlood flood-opacity="0" result="BackgroundImageFix"/>
<feColorMatrix in="SourceAlpha" type="matrix" values="0 0 0 0 0 0 0 0 0 0 0 0 0 0 0 0 0 0 127 0"/>
<feOffset dy="6"/>
<feGaussianBlur stdDeviation="10"/>
<feColorMatrix type="matrix" values="0 0 0 0 0.237802 0 0 0 0 0.273754 0 0 0 0 0.4625 0 0 0 0.08 0"/>
<feBlend mode="normal" in2="BackgroundImageFix" result="effect1_dropShadow"/>
<feBlend mode="normal" in="SourceGraphic" in2="effect1_dropShadow" result="shape"/>
</filter>
</defs>
</svg>
