<svg width="118" height="128" viewBox="0 0 118 128" fill="none" xmlns="http://www.w3.org/2000/svg">
<g filter="url(#filter0_d)">
<path d="M54 15.8868C57.094 14.1004 60.906 14.1004 64 15.8868L92.9711 32.6132C96.0652 34.3996 97.9711 37.7008 97.9711 41.2735V74.7265C97.9711 78.2992 96.0652 81.6004 92.9711 83.3867L64 100.113C60.906 101.9 57.094 101.9 54 100.113L25.0289 83.3867C21.9348 81.6004 20.0289 78.2992 20.0289 74.7265V41.2735C20.0289 37.7008 21.9348 34.3996 25.0289 32.6132L54 15.8868Z" fill="white"/>
</g>
<path d="M59.2837 75.9661C55.8242 75.8641 52.9427 74.3936 50.8007 71.5291C49.6022 69.9226 48.3867 68.3246 47.2817 66.6586C45.5052 64.0066 44.0347 61.2016 42.7852 58.2691C42.2327 56.9601 41.6377 55.6596 41.2977 54.2656C40.8812 52.5486 40.8982 50.8316 41.3402 49.1316C41.9862 46.6666 43.3547 44.6946 45.4117 43.1986C46.2107 42.6206 47.0522 42.1446 48.0637 42.0766C49.7382 41.9661 51.1067 42.5526 52.0332 43.9466C52.7727 45.0686 53.4442 46.2416 54.0477 47.4401C55.0252 49.3781 54.3367 51.7411 52.5177 52.9141C51.8632 53.3391 51.1832 53.7131 50.5032 54.1041C49.5937 54.6226 49.3217 55.4556 49.7722 56.3991C51.1492 59.3146 52.7557 62.1026 54.6087 64.7376C55.0677 65.3921 55.8922 65.6386 56.6232 65.2731C57.2862 64.9501 57.9152 64.5591 58.5527 64.1851C60.2612 63.1736 62.2672 63.3351 63.7717 64.6356C64.0692 64.8906 64.3242 65.2051 64.5282 65.5366C65.1317 66.5311 65.7097 67.5426 66.2877 68.5541C67.5117 70.7131 66.8232 73.2886 64.6812 74.5636C63.2447 75.4221 61.0432 76.0001 59.2837 75.9661ZM63.9842 73.4586C65.3782 72.7276 66.0242 70.9341 65.3527 69.5826C64.8427 68.5626 64.2307 67.5936 63.6782 66.5906C63.1512 65.6301 62.3862 65.0011 61.2727 64.8481C60.5587 64.7461 59.8957 64.8821 59.2667 65.2901C60.8392 68.0186 62.4032 70.7301 63.9842 73.4586Z" fill="#D9D8E4" stroke="#222A3F" stroke-width="0.3"/>
<path d="M51 53L46 44L47 43L49 42.5L51 44L54 49L53.5 51L51 53Z" fill="#5FA9FF"/>
<path d="M63.5 74L58.5 65L60.5 64L62.5 64.5L66.5 70L66 72L65 73.5L63.5 74Z" fill="#5FA9FF"/>
<path d="M59.2837 75.9661C55.8242 75.8641 52.9427 74.3936 50.8007 71.5291C49.6022 69.9226 48.3867 68.3246 47.2817 66.6586C45.5052 64.0066 44.0347 61.2016 42.7852 58.2691C42.2327 56.9601 41.6377 55.6596 41.2977 54.2656C40.8812 52.5486 40.8982 50.8316 41.3402 49.1316C41.9862 46.6666 43.3547 44.6946 45.4117 43.1986C46.2107 42.6206 47.0522 42.1446 48.0637 42.0766C49.7382 41.9661 51.1067 42.5526 52.0332 43.9466C52.7727 45.0686 53.4442 46.2416 54.0477 47.4401C55.0252 49.3781 54.3367 51.7411 52.5177 52.9141C51.8632 53.3391 51.1832 53.7131 50.5032 54.1041C49.5937 54.6226 49.3217 55.4556 49.7722 56.3991C51.1492 59.3146 52.7557 62.1026 54.6087 64.7376C55.0677 65.3921 55.8922 65.6386 56.6232 65.2731C57.2862 64.9501 57.9152 64.5591 58.5527 64.1851C60.2612 63.1736 62.2672 63.3351 63.7717 64.6356C64.0692 64.8906 64.3242 65.2051 64.5282 65.5366C65.1317 66.5311 65.7097 67.5426 66.2877 68.5541C67.5117 70.7131 66.8232 73.2886 64.6812 74.5636C63.2447 75.4221 61.0432 76.0001 59.2837 75.9661ZM51.6082 52.0046C51.8547 51.8091 52.0757 51.6816 52.2542 51.5031C53.2912 50.4236 53.5122 49.0976 52.8067 47.7716C52.2457 46.7091 51.6337 45.6636 50.9792 44.6521C50.1122 43.3176 48.2252 42.9351 46.8652 43.7766C46.0407 44.2866 45.2842 44.8646 44.6467 45.6041C42.4112 48.1966 41.7567 51.1546 42.6747 54.4356C42.9977 55.5746 43.4992 56.6711 43.9582 57.7676C44.8762 59.9436 45.9557 62.0346 47.1542 64.0661C48.6077 66.5311 50.2567 68.8601 52.0587 71.0786C52.7982 71.9966 53.6482 72.7786 54.6682 73.3736C56.6912 74.5636 58.8587 74.9291 61.1537 74.5041C61.7147 74.4021 62.2587 74.2236 62.8537 74.0621C61.2557 71.2996 59.7087 68.6136 58.1447 65.9106C57.8897 66.0551 57.6687 66.1741 57.4477 66.3016C55.9687 67.1516 54.3707 66.6501 53.5122 65.4091C51.6422 62.7146 50.0102 59.8926 48.6162 56.9261C47.9022 55.3961 48.3782 53.8576 49.8402 53.0076C50.0442 52.8886 50.2567 52.7611 50.4692 52.6336C50.1972 52.1661 49.9507 51.7241 49.6957 51.2906C49.1177 50.2791 48.5227 49.2761 47.9532 48.2646C47.7322 47.8736 47.8342 47.4911 48.1657 47.3211C48.4887 47.1511 48.8457 47.2786 49.0582 47.6441C49.7807 48.8851 50.4947 50.1346 51.2172 51.3756C51.3447 51.5796 51.4637 51.7751 51.6082 52.0046ZM63.9842 73.4586C65.3782 72.7276 66.0242 70.9341 65.3527 69.5826C64.8427 68.5626 64.2307 67.5936 63.6782 66.5906C63.1512 65.6301 62.3862 65.0011 61.2727 64.8481C60.5587 64.7461 59.8957 64.8821 59.2667 65.2901C60.8392 68.0186 62.4032 70.7301 63.9842 73.4586Z" fill="#222A3F" stroke="#222A3F" stroke-width="0.3"/>
<path d="M75.0002 58.8558C74.9407 63.2928 73.5297 67.0668 70.6907 70.2968C70.5037 70.5093 70.3082 70.7133 70.1042 70.9173C69.8067 71.2233 69.4242 71.2658 69.1607 71.0363C68.8717 70.7813 68.8717 70.4073 69.1607 70.0588C69.7302 69.3788 70.3422 68.7243 70.8607 68.0018C72.2547 66.0638 73.1302 63.9048 73.4957 61.5503C73.8357 59.3658 73.7507 57.1898 73.1982 55.0478C72.6457 52.9143 71.6852 50.9763 70.3082 49.2508C68.4892 46.9558 66.1942 45.3068 63.4572 44.3038C62.5392 43.9723 61.5702 43.7853 60.6182 43.5388C60.1847 43.4283 59.9552 43.0968 60.0742 42.7143C60.1677 42.4168 60.4567 42.2298 60.8222 42.2893C62.3182 42.5273 63.7462 42.9778 65.1232 43.6068C66.8742 44.4143 68.4467 45.4938 69.8322 46.8368C71.1497 48.1118 72.2377 49.5653 73.0707 51.2058C74.0907 53.1948 74.6857 55.3028 74.9152 57.5128C74.9832 58.0143 74.9832 58.5073 75.0002 58.8558Z" fill="#222A3F" stroke="#222A3F" stroke-width="0.3"/>
<path d="M57.6091 59.6463C57.1756 59.6463 56.7421 59.6463 56.3001 59.6463C55.8751 59.6378 55.6201 59.4168 55.6116 59.0088C55.5946 58.4903 55.5861 57.9718 55.6286 57.4618C55.7051 56.5523 56.5126 55.8893 57.5496 55.8298C58.1106 55.7958 58.3996 55.5748 58.3826 55.1668C58.3656 54.7758 58.0681 54.5718 57.5156 54.5718C57.0481 54.5633 56.5891 54.5718 56.1216 54.5378C55.8581 54.5208 55.6796 54.3338 55.6286 54.0788C55.5691 53.8238 55.6371 53.5858 55.8581 53.4328C55.9686 53.3563 56.1131 53.2883 56.2491 53.2883C56.8441 53.2883 57.4476 53.2628 58.0341 53.3393C59.0881 53.4753 59.7171 54.3338 59.6491 55.4388C59.5896 56.3228 58.7566 57.0793 57.7961 57.1133C57.7111 57.1133 57.6346 57.1133 57.5496 57.1133C57.1671 57.1303 56.9461 57.3173 56.8781 57.6913C56.8526 57.8273 56.8696 57.9718 56.8526 58.1163C56.8271 58.3373 56.9291 58.3968 57.1331 58.3883C57.7196 58.3798 58.3061 58.3798 58.8926 58.3883C59.3686 58.3883 59.6406 58.6348 59.6406 59.0343C59.6321 59.4338 59.3601 59.6633 58.8756 59.6633C58.8671 59.6633 58.8586 59.6633 58.8416 59.6633C58.4336 59.6463 58.0256 59.6463 57.6091 59.6463Z" fill="#222A3F" stroke="#222A3F" stroke-width="0.3"/>
<path d="M66.9169 55.6339C67.3674 55.6339 67.7754 55.5575 68.1409 55.651C69.1439 55.889 69.6794 56.6199 69.7134 57.6824C69.7304 58.0904 69.7219 58.4899 69.7134 58.8979C69.7049 59.3654 69.4414 59.6544 69.0589 59.6459C68.6849 59.6289 68.4469 59.3484 68.4469 58.8894C68.4469 58.4984 68.4554 58.0989 68.4469 57.7079C68.4384 57.2064 68.1154 56.8579 67.6819 56.8664C67.2484 56.8749 66.9424 57.1979 66.9254 57.6909C66.9084 58.1754 66.9339 58.6684 66.8829 59.1444C66.8234 59.6289 66.2369 59.8244 65.8884 59.4844C65.7609 59.3654 65.6674 59.1529 65.6674 58.9829C65.6504 57.2404 65.6504 55.498 65.6589 53.7555C65.6589 53.3475 65.8884 53.101 66.2539 53.084C66.6194 53.067 66.8829 53.2795 66.9084 53.6875C66.9424 54.2145 66.9254 54.7415 66.9254 55.2685C66.9169 55.3875 66.9169 55.5149 66.9169 55.6339Z" fill="#222A3F" stroke="#222A3F" stroke-width="0.3"/>
<path d="M64.6983 56.3394C64.6983 57.2234 64.6983 58.0989 64.6983 58.9829C64.6983 59.2464 64.5793 59.4504 64.3413 59.5694C64.1203 59.6799 63.8823 59.6799 63.7208 59.5099C63.5848 59.3569 63.4743 59.1359 63.4573 58.9404C63.4233 58.4389 63.4318 57.9289 63.4488 57.4189C63.4573 57.1894 63.3723 57.1129 63.1513 57.1214C62.7603 57.1299 62.3608 57.1299 61.9698 57.0959C61.2643 57.0449 60.6948 56.4669 60.6693 55.7614C60.6438 55.0814 60.6438 54.4014 60.6608 53.7299C60.6693 53.2964 60.9073 53.0669 61.2898 53.0754C61.6638 53.0839 61.8933 53.3219 61.9018 53.7554C61.9103 54.3164 61.9018 54.8689 61.9103 55.4299C61.9103 55.7954 61.9868 55.8634 62.3608 55.8719C62.6158 55.8719 62.8708 55.8549 63.1173 55.8719C63.3638 55.8889 63.4573 55.8124 63.4488 55.5489C63.4318 54.9454 63.4318 54.3334 63.4488 53.7299C63.4573 53.3389 63.6698 53.1179 64.0013 53.0839C64.4093 53.0414 64.6898 53.2964 64.6983 53.7384C64.7068 54.5969 64.6983 55.4724 64.6983 56.3394Z" fill="#222A3F" stroke="#222A3F" stroke-width="0.3"/>
<path d="M58.7396 42.6969C58.7311 43.0369 58.4166 43.3429 58.0681 43.3429C57.7026 43.3344 57.3796 43.0114 57.3966 42.6629C57.4136 42.3314 57.7536 42.0169 58.0936 42.0339C58.4506 42.0509 58.7481 42.3569 58.7396 42.6969Z" fill="#222A3F" stroke="#222A3F" stroke-width="0.3"/>
<path d="M47.3413 46.5301C46.9928 46.5301 46.6953 46.2496 46.6953 45.9096C46.6953 45.5696 46.9928 45.2891 47.3413 45.2891C47.6898 45.2891 47.9533 45.5526 47.9618 45.8926C47.9703 46.2496 47.6983 46.5301 47.3413 46.5301Z" fill="#222A3F" stroke="#222A3F" stroke-width="0.3"/>
<defs>
<filter id="filter0_d" x="0.0288086" y="0.546875" width="117.942" height="126.906" filterUnits="userSpaceOnUse" color-interpolation-filters="sRGB">
<feFlood flood-opacity="0" result="BackgroundImageFix"/>
<feColorMatrix in="SourceAlpha" type="matrix" values="0 0 0 0 0 0 0 0 0 0 0 0 0 0 0 0 0 0 127 0"/>
<feOffset dy="6"/>
<feGaussianBlur stdDeviation="10"/>
<feColorMatrix type="matrix" values="0 0 0 0 0.237802 0 0 0 0 0.273754 0 0 0 0 0.4625 0 0 0 0.08 0"/>
<feBlend mode="normal" in2="BackgroundImageFix" result="effect1_dropShadow"/>
<feBlend mode="normal" in="SourceGraphic" in2="effect1_dropShadow" result="shape"/>
</filter>
</defs>
</svg>
