<svg width="45" height="47" viewBox="0 0 45 47" fill="none" xmlns="http://www.w3.org/2000/svg">
<path d="M38.0012 11.1036C38.4795 11.3798 39.0911 11.2159 39.3672 10.7376C39.6434 10.2593 39.4795 9.64772 39.0012 9.37158L38.0012 11.1036ZM42.9868 17C42.9868 16.4477 42.5391 16 41.9868 16C41.4345 16 40.9868 16.4477 40.9868 17H42.9868ZM6.01562 10.5179L5.51562 9.65192L6.01562 10.5179ZM25.5012 44.2679L26.0012 45.134L25.5012 44.2679ZM38.9868 36.4821L38.4868 35.616L38.9868 36.4821ZM38.4868 35.616L25.0012 43.4019L26.0012 45.134L39.4868 37.3481L38.4868 35.616ZM20.0012 43.4019L6.51563 35.616L5.51563 37.3481L19.0012 45.134L20.0012 43.4019ZM4.01562 31.2859V15.7141H2.01562V31.2859H4.01562ZM6.51562 11.384L20.0012 3.59808L19.0012 1.86603L5.51562 9.65192L6.51562 11.384ZM25.0012 3.59808L38.0012 11.1036L39.0012 9.37158L26.0012 1.86603L25.0012 3.59808ZM40.9868 17V31.2859H42.9868V17H40.9868ZM4.01562 15.7141C4.01562 13.9278 4.96862 12.2771 6.51562 11.384L5.51562 9.65192C3.34982 10.9024 2.01562 13.2132 2.01562 15.7141H4.01562ZM6.51563 35.616C4.96862 34.7229 4.01562 33.0722 4.01562 31.2859H2.01562C2.01562 33.7868 3.34982 36.0976 5.51563 37.3481L6.51563 35.616ZM25.0012 43.4019C23.4542 44.2951 21.5482 44.2951 20.0012 43.4019L19.0012 45.134C21.167 46.3844 23.8354 46.3844 26.0012 45.134L25.0012 43.4019ZM39.4868 37.3481C41.6526 36.0976 42.9868 33.7868 42.9868 31.2859H40.9868C40.9868 33.0722 40.0338 34.7229 38.4868 35.616L39.4868 37.3481ZM20.0012 3.59808C21.5482 2.70491 23.4542 2.70491 25.0012 3.59808L26.0012 1.86603C23.8354 0.615596 21.167 0.615596 19.0012 1.86603L20.0012 3.59808Z" fill="white"/>
<circle cx="41.5" cy="12.7998" r="1" fill="white"/>
<g clip-path="url(#clip0)">
<path d="M31.5893 18.7557C31.3705 17.9424 30.7293 17.3013 29.9161 17.0823C28.4305 16.6758 22.488 16.6758 22.488 16.6758C22.488 16.6758 16.5458 16.6758 15.0602 17.0668C14.2627 17.2856 13.6058 17.9425 13.387 18.7557C12.9961 20.2411 12.9961 23.3218 12.9961 23.3218C12.9961 23.3218 12.9961 26.418 13.387 27.888C13.606 28.7011 14.247 29.3423 15.0603 29.5613C16.5615 29.9679 22.4883 29.9679 22.4883 29.9679C22.4883 29.9679 28.4305 29.9679 29.9161 29.5768C30.7294 29.3579 31.3705 28.7168 31.5895 27.9036C31.9804 26.418 31.9804 23.3375 31.9804 23.3375C31.9804 23.3375 31.996 20.2411 31.5893 18.7557ZM20.5961 26.1679V20.4758L25.5376 23.3218L20.5961 26.1679Z" fill="white"/>
</g>
<defs>
<clipPath id="clip0">
<rect width="20.25" height="20.25" fill="white" transform="translate(12.375 13.375)"/>
</clipPath>
</defs>
</svg>
